<svg id="Capa_1" data-name="Capa 1" xmlns="http://www.w3.org/2000/svg" viewBox="0 0 2000 2000"><defs><style>.cls-1{fill:#fff;}</style></defs><title>Sin título-3</title><g id="outline"><path class="cls-1" d="M1829,874.25a294.46,294.46,0,0,0-84.86-16c-5.75-.44-12.78-.95-18.46-1.66,2.84-3.76,6.16-7.92,8.94-11.43A226.48,226.48,0,0,0,1785,751.67c18.53-80.9,22.65-233.16-79.4-290.65A186,186,0,0,0,1558.5,448.6,261.92,261.92,0,0,0,1406.14,570c-36.34,70.26-16.86,141.71-1.18,199.11,9.58,35.51,18.85,69,7.38,79.85-13.32,12.77-53,2.07-91.51-8.44-12-3.19-24.4-6.38-36.79-9.58a255.74,255.74,0,0,0-232.81-150.3h-2.61a296.85,296.85,0,0,0-18.15-70.91C966.79,448,788,366.23,670.64,401.07a191.64,191.64,0,0,0-86.84,56.41,319.76,319.76,0,0,0-99.27-92.12A367.12,367.12,0,0,0,192,343,193,193,0,0,0,69.1,445.21C39.3,520.65,94.65,606.28,195.26,761.73,206,778.34,217.2,794.6,228.32,811a581,581,0,0,0-77.07,35.13A167.78,167.78,0,0,0,73,924.3a316.46,316.46,0,0,0-11.92,107.64c.58,511.31,414.94,925.66,926.25,926.24h63.87c511.31-.58,925.67-414.93,926.25-926.24a57.4,57.4,0,0,0-3.45-14.44A276.62,276.62,0,0,0,1829,874.25Zm-524.73,28.24c55.6,15.07,113,30.66,152.35-7.19,38.81-37.17,24.15-90.9,10-142.86s-28.58-104.86-3.7-153a198,198,0,0,1,113.93-89.43,125.17,125.17,0,0,1,97.54,6.9c64.29,36.22,64.2,151.74,48.42,220.57a167.81,167.81,0,0,1-38,67.65c-17.5,21.88-39.28,49.06-23.34,81.32,15.39,30.76,48.64,33.25,78,35.42a233.87,233.87,0,0,1,67.07,12.14,184.24,184.24,0,0,1,82.06,66H1568.65c7.35-40.34,15.43-80.71,24.76-120.44,17.4-74.2,38.61-148.46,63-220.67l-60.49-20.44c-25.07,74.13-46.86,150.33-64.74,226.48-10.45,44.55-19.45,89.84-27.44,135.07H1298.38a240.88,240.88,0,0,0,5.88-97.51Zm-221.09-94.13v-61A192,192,0,0,1,1235.4,883.68l-66.5,22.16,20.18,60.69,53.12-17.7a186,186,0,0,1-10.38,51.17H870.65a187.71,187.71,0,0,1-11-63.88,191.62,191.62,0,0,1,1-19.16l52.79,17.6,20.19-60.69-55.83-18.62a191.93,191.93,0,0,1,141.55-107.89v61ZM688.88,462.43C776,436.49,921.27,506.92,971.07,633.27a233.39,233.39,0,0,1,14.34,56.25C850.06,725,768.86,863.24,803.74,998.75l-2.65,1.25H653.78c13.67-14.21,27.05-28.75,39.22-44.08A654.16,654.16,0,0,0,827.47,620.21l-63.5-7A594,594,0,0,1,642.92,916.32c-1.79,2.27-4,4.25-5.78,6.39a543,543,0,0,0-18.59-407.13A138.82,138.82,0,0,1,688.88,462.43Zm-560.34,6.39a134.16,134.16,0,0,1,84.51-65.29,305.34,305.34,0,0,1,239.54,17.35c152.8,88.21,187.74,342.42,115.85,502.21-2.52,5.62-5.49,10.8-8.37,16-6.16-26-13.09-51.81-21.53-76.94A931.06,931.06,0,0,0,274.18,465.3l-42.86,47.34A868.43,868.43,0,0,1,478,882.37,822.44,822.44,0,0,1,507.59,1000H452.37A2544.89,2544.89,0,0,1,248.89,727.14C158.15,586.83,111.58,511.65,128.54,468.75Zm2.84,481.26a101.06,101.06,0,0,1,50.3-47.91,511.6,511.6,0,0,1,84.42-36.86Q315.83,934.6,369.42,1000H126.69A87.07,87.07,0,0,1,131.38,950.08Zm919.85,944.22H987.36c-463.64-.52-844.09-367.12-861.79-830.42H1913C1895.32,1527.18,1514.87,1893.78,1051.23,1894.3Z"/><rect class="cls-1" x="1019.29" y="872.24" width="63.88" height="63.88"/><path class="cls-1" d="M1083.17,425.09V489a31.94,31.94,0,0,0,31.94,31.94h127.76c158.68-.18,287.28-128.77,287.45-287.45V169.58a31.93,31.93,0,0,0-31.93-31.94H1370.63C1211.94,137.81,1083.35,266.41,1083.17,425.09Zm287.46-223.57h95.82v31.94c-.14,123.41-100.16,223.43-223.58,223.57h-41.52l158-135.45-41.53-48.49L1147.31,419.28C1150.46,298.18,1249.48,201.61,1370.63,201.52Z"/><path class="cls-1" d="M795.72,233.46a95.82,95.82,0,1,0,95.82-95.82A95.82,95.82,0,0,0,795.72,233.46Zm127.76,0a31.94,31.94,0,1,1-31.94-31.94A31.94,31.94,0,0,1,923.48,233.46Z"/><path class="cls-1" d="M380.51,137.64a95.82,95.82,0,1,0,95.82-95.82A95.82,95.82,0,0,0,380.51,137.64Zm127.76,0a31.94,31.94,0,1,1-31.94-31.94A31.94,31.94,0,0,1,508.27,137.64Z"/><path class="cls-1" d="M343.94,1366.7l-54.62,33.15a867.37,867.37,0,0,0,364.75,331.56l27.79-57.49A804,804,0,0,1,343.94,1366.7Z"/><rect class="cls-1" x="731.84" y="1702.67" width="63.88" height="63.88"/></g></svg>