<svg id="Capa_1" data-name="Capa 1" xmlns="http://www.w3.org/2000/svg" viewBox="0 0 408.24 277.93"><defs><style>.cls-1{fill:#b22585;}.cls-2{fill:#93d500;}</style></defs><title>pagina</title><polygon class="cls-1" points="101.2 162.77 73.96 126.92 73.96 162.77 55.96 162.77 55.96 95.5 72.06 95.5 100.18 132.37 100.18 95.5 118.18 95.5 118.18 162.77 101.2 162.77"/><polygon class="cls-1" points="122.29 162.62 122.29 95.5 167.69 95.5 167.69 111.61 139.03 111.61 139.03 120.05 162.33 120.05 162.33 136.32 139.03 136.32 139.03 162.62 122.29 162.62"/><path class="cls-1" d="M201.81,166.64a45.22,45.22,0,0,1-14.53-2.21,30.85,30.85,0,0,1-12.63-7.66c-6-6.16-8.85-14.84-8.61-25.9a35.48,35.48,0,0,1,4-16.11,29,29,0,0,1,9-10.34,37.32,37.32,0,0,1,21.63-7.11h.16c5.14,0,8.77.63,12.16,2.13,3.95,1.74,7.74,4.74,11.93,9.4l.71.71-10.35,12.32-.87-.87a26.89,26.89,0,0,0-3.23-2.68,18.51,18.51,0,0,0-10.58-3.4,14.67,14.67,0,0,0-11,4.9,17.54,17.54,0,0,0-4.42,11.76,18.92,18.92,0,0,0,4.18,12.16A13.93,13.93,0,0,0,200.55,149a19.28,19.28,0,0,0,11.13-3.23,13,13,0,0,0,2.76-2.53l.87-1,10.35,11.45-.48.71a25.54,25.54,0,0,1-5.13,5.77,29.22,29.22,0,0,1-7.34,4.42,30.81,30.81,0,0,1-10.9,2"/><path class="cls-2" d="M245.17,155.26a6.71,6.71,0,0,1,1.79.23,6.06,6.06,0,0,1,1.56.63,3.58,3.58,0,0,1,1.1,1,1.85,1.85,0,0,1,.4,1.12,2.56,2.56,0,0,1-1.15,1.88,11.42,11.42,0,0,1-4,1.77,48,48,0,0,1-7.54,1.33,113.72,113.72,0,0,1-11.88.52,28.42,28.42,0,0,0-7.69,1.06,22.59,22.59,0,0,0-6.82,3.16,17.14,17.14,0,0,0-4.89,5.08,12.75,12.75,0,0,0-1.88,6.88,19.6,19.6,0,0,0,.9,6,14.22,14.22,0,0,0,2.72,5,13.21,13.21,0,0,0,4.56,3.41,15.49,15.49,0,0,0,6.51,1.27,73.42,73.42,0,0,0,12.6-.9,43.27,43.27,0,0,0,8.41-2.25,26.82,26.82,0,0,0,5.55-2.92l4-2.92a22.16,22.16,0,0,1,3.88-2.25,12.15,12.15,0,0,1,5-.9,5.66,5.66,0,0,1,3.81,1.18,4.2,4.2,0,0,1,1.39,3.39,5.41,5.41,0,0,1-1.59,3.35,21.88,21.88,0,0,1-4.51,3.79,46.3,46.3,0,0,1-7,3.72,69.38,69.38,0,0,1-9.14,3.21,87,87,0,0,1-10.81,2.29,82,82,0,0,1-12,.86,36.76,36.76,0,0,1-10.75-1.53,25.58,25.58,0,0,1-8.79-4.59,21.72,21.72,0,0,1-5.92-7.66,25,25,0,0,1-2.17-10.78,19.58,19.58,0,0,1,2.43-9.69,25.42,25.42,0,0,1,6.62-7.66,37.49,37.49,0,0,1,9.77-5.43,50.91,50.91,0,0,1,11.88-3,24.53,24.53,0,0,1-6.83-7.14,14,14,0,0,1-2-6.9,12.16,12.16,0,0,1,1.67-6.22,19.36,19.36,0,0,1,4.6-5.23,33,33,0,0,1,6.79-4.19,51.55,51.55,0,0,1,8.33-3.06,69.36,69.36,0,0,1,9.22-1.91,67,67,0,0,1,9.39-.67,39.51,39.51,0,0,1,9,1,24.83,24.83,0,0,1,7.6,3.06,17.92,17.92,0,0,1,5.49,5.26,16.3,16.3,0,0,1,2.6,7.51,5.94,5.94,0,0,1-.58,2.49,7,7,0,0,1-1.76,2.34,9.47,9.47,0,0,1-2.89,1.74,11,11,0,0,1-4,.66,5.33,5.33,0,0,1-1.93-.29,2.34,2.34,0,0,1-1.1-.81,2.52,2.52,0,0,1-.47-1.24,15.35,15.35,0,0,1-.08-1.59A15.08,15.08,0,0,0,264,135a6.86,6.86,0,0,0-2.11-3.21,9.43,9.43,0,0,0-3.84-1.85,24,24,0,0,0-5.9-.61,45.36,45.36,0,0,0-8.78.9,38.84,38.84,0,0,0-8.39,2.6,22,22,0,0,0-6.27,4.07,7.25,7.25,0,0,0-2.46,5.32,10.77,10.77,0,0,0,1.6,6,12.72,12.72,0,0,0,4.21,4.07,19.37,19.37,0,0,0,6,2.31,33.49,33.49,0,0,0,7.06.73"/><path class="cls-2" d="M318.58,186.3c-.69.65-1.62,1.56-2.77,2.72s-2.48,2.4-4,3.75-3.07,2.71-4.74,4.08a55.38,55.38,0,0,1-5.15,3.73,35.11,35.11,0,0,1-5.17,2.74,12.5,12.5,0,0,1-4.8,1.07,6.6,6.6,0,0,1-3.47-.87,7.7,7.7,0,0,1-2.4-2.25,10,10,0,0,1-1.41-3.15,14.13,14.13,0,0,1-.47-3.61,16,16,0,0,1,.18-2.4,10,10,0,0,1,.58-2.23q-1.8,2.43-4.08,5a40.19,40.19,0,0,1-4.91,4.69,28.06,28.06,0,0,1-5.5,3.46,13.31,13.31,0,0,1-5.8,1.36,12,12,0,0,1-3.5-.61,11.56,11.56,0,0,1-6.79-5.57,11,11,0,0,1-1.22-5.38,27.22,27.22,0,0,1,.72-5.67,41.94,41.94,0,0,1,6-13.87,30.75,30.75,0,0,1,5.4-6.21,26.19,26.19,0,0,1,7.11-4.45,22.4,22.4,0,0,1,8.91-1.71,13.92,13.92,0,0,1,4.45.64,18.09,18.09,0,0,1,3.23,1.38,16,16,0,0,1,2.66,2c.66-.35,1.33-.68,2-1s1.18-.5,1.82-.72a5.35,5.35,0,0,1,1.64-.32,5.26,5.26,0,0,1,3.59,1.22,3.51,3.51,0,0,1,1.38,2.66,2.65,2.65,0,0,1-.05.63c-.2.74-.49,1.66-.9,2.78s-.86,2.36-1.36,3.73-1,2.79-1.53,4.27-1,2.94-1.41,4.37-.78,2.76-1.05,4a16.24,16.24,0,0,0-.4,3.2,6.24,6.24,0,0,0,.58,2.87,2,2,0,0,0,2,1.12,5,5,0,0,0,2.06-.55,19.27,19.27,0,0,0,2.57-1.47c.92-.62,1.88-1.32,2.86-2.11s1.94-1.59,2.86-2.4q3.24-2.9,6.88-6.59a2.88,2.88,0,0,1,1.79-.75,2.29,2.29,0,0,1,1.94,1.13,4.31,4.31,0,0,1,.78,2.51,3.7,3.7,0,0,1-1.1,2.72m-40.06-14.92a10.92,10.92,0,0,0-5.26,1.39,16.39,16.39,0,0,0-4.51,3.64,18.28,18.28,0,0,0-3.12,5.06,14.71,14.71,0,0,0-1.16,5.64,20.07,20.07,0,0,0,.15,2.4,6.78,6.78,0,0,0,.66,2.28,4.74,4.74,0,0,0,1.48,1.73,4.21,4.21,0,0,0,2.57.7,5.68,5.68,0,0,0,3-1.13,25.23,25.23,0,0,0,3.52-2.89,47.75,47.75,0,0,0,3.56-3.87q1.73-2.12,3.12-4.14a39,39,0,0,0,2.25-3.64,5.94,5.94,0,0,0,.87-2.37,3,3,0,0,0-.75-2,6.78,6.78,0,0,0-1.85-1.53,8.88,8.88,0,0,0-2.34-1,9,9,0,0,0-2.17-.32"/><path class="cls-2" d="M329.79,170.81q-2.13,4.16-4,8.12t-3.59,7.31a30.82,30.82,0,0,0-1.35,3.21,9.36,9.36,0,0,0-.67,3.21,2,2,0,0,0,.38,1.27,1.5,1.5,0,0,0,1.24.46,8.81,8.81,0,0,0,3.06-.72,32.26,32.26,0,0,0,4-1.91q2.15-1.19,4.51-2.72t4.65-3.18c1.53-1.09,3-2.19,4.37-3.29s2.62-2.11,3.7-3a3,3,0,0,1,1.73-.64,1.93,1.93,0,0,1,1.62.87A3.64,3.64,0,0,1,350,182a6.58,6.58,0,0,1-.64,2.72,7.83,7.83,0,0,1-2.31,2.72q-3.76,3.4-7.6,6.47a82.28,82.28,0,0,1-7.63,5.41,42.72,42.72,0,0,1-7.49,3.72,20.29,20.29,0,0,1-7.17,1.39,10.62,10.62,0,0,1-3.87-.61,6.43,6.43,0,0,1-2.52-1.67,6.29,6.29,0,0,1-1.35-2.49,10.93,10.93,0,0,1-.41-3,20.12,20.12,0,0,1,1-6,40.29,40.29,0,0,1,2.2-5.61l3.44-7.11c1.14-2.35,2.25-4.61,3.32-6.76H316.5c-2.16,0-3.64-.35-4.45-1a3.06,3.06,0,0,1-1.22-2.37,3.64,3.64,0,0,1,.38-1.41,5.23,5.23,0,0,1,1.1-1.56,6.6,6.6,0,0,1,1.76-1.24,5.2,5.2,0,0,1,2.37-.53h6.24l12.2-24.22a7.5,7.5,0,0,1,2.86-3.15,7.25,7.25,0,0,1,3.56-.95,5.86,5.86,0,0,1,3.18.92,3.37,3.37,0,0,1,1.44,3.07,5.47,5.47,0,0,1-.49,2.22c-.33.76-.76,1.63-1.3,2.63-.35.66-.77,1.44-1.27,2.35l-1.59,2.89-1.74,3.2c-.59,1.12-1.18,2.2-1.76,3.24q-2,3.71-4.16,7.8h18.84a19.89,19.89,0,0,1,2.55.15,6,6,0,0,1,2,.58,3.24,3.24,0,0,1,1.3,1.18,3.84,3.84,0,0,1,.47,2,4.07,4.07,0,0,1-.21,1.27,2.61,2.61,0,0,1-.75,1.15,4.3,4.3,0,0,1-1.5.87,9.72,9.72,0,0,1-2.46.46Z"/><path class="cls-1" d="M315.64,151.71a6.05,6.05,0,1,1-6.09-6,6,6,0,0,1,6.09,6"/><path class="cls-2" d="M309.41,127.37a19.47,19.47,0,0,0-16.66,9.17,4.51,4.51,0,0,0,1.76,6.12,4.43,4.43,0,0,0,2.21.56,4.5,4.5,0,0,0,3.91-2.32,11.06,11.06,0,0,1,17.79-.09,4.5,4.5,0,0,0,7.78-4.52,19.46,19.46,0,0,0-16.79-8.92"/><path class="cls-2" d="M309.27,107.94c-20.4.15-29,15.37-29.41,16a4.5,4.5,0,0,0,7.86,4.38c.26-.46,6.61-11.28,21.61-11.39s21.48,10.56,21.78,11.07a4.5,4.5,0,0,0,7.8-4.5c-.37-.64-9.24-15.73-29.64-15.58"/></svg>