<svg id="Capa_1" data-name="Capa 1" xmlns="http://www.w3.org/2000/svg" viewBox="0 0 2000 2000"><defs><style>.cls-1{fill:#fff;}</style></defs><title>Sin título-3</title><path class="cls-1" d="M1071.5,644.46H881.18a31.72,31.72,0,0,0-31.72,31.72V1374a31.72,31.72,0,0,0,63.44,0V707.9h126.88V1374a31.72,31.72,0,0,0,63.44,0V676.18A31.72,31.72,0,0,0,1071.5,644.46Z"/><path class="cls-1" d="M1506.88,43l-222,63.44a31.54,31.54,0,0,0-22.49,24.8l-19.63,107.85a150.29,150.29,0,0,0-114.7,9.52,156.72,156.72,0,0,0-28-52.44,126.88,126.88,0,1,0-247.41,0,156.52,156.52,0,0,0-28,52.66,156.33,156.33,0,0,0-70.33-16.75,158.37,158.37,0,0,0-145.24,222H595.71a31.72,31.72,0,0,0-31.77,31.67c0,.59,0,1.17,0,1.76l46.31,856.9a366.47,366.47,0,0,0,270.88,334v85.64l-328,119.27A31.72,31.72,0,0,0,564,1945h824.7a31.72,31.72,0,0,0,10.85-61.53l-328-119.27v-85.64a368.25,368.25,0,0,0,236.59-197.64,31.74,31.74,0,1,0-57.44-27c-71.27,151.48-251.84,216.49-403.32,145.22a303.11,303.11,0,0,1-173.62-258L639.48,707.9h63.44l19.66,362.68V1374a31.37,31.37,0,0,0,27.95,31c44.36,124.72,181.42,189.85,306.13,145.49A239.68,239.68,0,0,0,1202.15,1405a31.35,31.35,0,0,0,27.94-31V1071.44l19.7-363.54h63.44L1284,1245.38a31.72,31.72,0,0,0,29.88,33.46h.22a32.17,32.17,0,0,0,33.4-30l41.23-761.26a31.72,31.72,0,0,0-29.92-33.42c-.62,0-1.24-.05-1.86,0h-13.35a156.74,156.74,0,0,0-42.25-183.06l19.85-109,203-58ZM744,1881.51l174.45-63.43H1034.2l174.45,63.43Zm264-190.31v63.44H944.62V1691.2Zm-31.72-1586a63.23,63.23,0,0,1,58.81,87c-.23.47-.35.95-.54,1.46a63.45,63.45,0,0,1-116.48,0,14.72,14.72,0,0,0-.63-1.72,63.19,63.19,0,0,1,58.84-86.72ZM636.05,644.46,629.2,517.58h65.66L698,614.46l1.62,30Zm340.29,856.42a176.23,176.23,0,0,1-176-166.68L786,1068.55V676.18a31.34,31.34,0,0,0-22.83-29.94l-1.88-34.51-3-94.15h438.27l-7,128.66a31.29,31.29,0,0,0-23,29.94V1069.5l-14.34,264.6A176.26,176.26,0,0,1,976.34,1500.88Zm276.91-856.42,6.88-126.88h63.44l-6.85,126.88Zm-23.16-190.31h-546A94.62,94.62,0,1,1,823.39,326q1.67,1.81,3.23,3.7a31.72,31.72,0,0,0,55.77-23.91l-.64-5.08a41.34,41.34,0,0,1-.57-5.2,94.36,94.36,0,0,1,7.11-35.88,126,126,0,0,0,176.1,0,94.59,94.59,0,0,1,7.11,35.88,41.34,41.34,0,0,1-.57,5.2l-.64,5.08a31.71,31.71,0,0,0,55.76,23.91,94.62,94.62,0,0,1,145.75,120.7c-1,1.27-2.12,2.5-3.23,3.71Z"/><circle class="cls-1" cx="1308.41" cy="1358.15" r="31.72"/></svg>