<svg id="Capa_1" data-name="Capa 1" xmlns="http://www.w3.org/2000/svg" viewBox="0 0 2000 2000"><defs><style>.cls-1{fill:#fff;}</style></defs><title>Sin título-3</title><path class="cls-1" d="M243.72,1697H456.13v25.21A149.54,149.54,0,0,0,605.4,1871.66h461.42c224.41,171.82,545.63,129.18,717.45-95.24a511.76,511.76,0,0,0,62.37-516.54,63.79,63.79,0,0,0-84-32.79q-2.65,1.17-5.19,2.57l-329,181.7V990.86A84.76,84.76,0,0,0,1389,919a87.12,87.12,0,0,1-32.73-37.72h4.19c37,0,68.57-30.29,68-67.32a66.26,66.26,0,0,0-60.19-64.8v-49a66.19,66.19,0,0,0-6-132.11H859L687.21,138a90.39,90.39,0,0,0-69.3-55.68L369,41.42A23.14,23.14,0,0,0,342.41,60.5a.88.88,0,0,1,0,.17l-14.67,93.84A23.14,23.14,0,0,0,347,181l.32,0,219.13,31.16L701.7,568.06H536.2a66.19,66.19,0,0,0-14.14,130.85v52a67.17,67.17,0,0,0-52,65.34A66.28,66.28,0,0,0,529.69,881l-1.44,5.52a40.87,40.87,0,0,1-22.53,27,84.92,84.92,0,0,0-34.65,29.35H243.72A128.14,128.14,0,0,0,115.8,1070.92v498A128.14,128.14,0,0,0,243.72,1697Zm1536.06-426.81a17.53,17.53,0,0,1,24.5,8.3c103.53,235.15-3.16,509.71-238.31,613.25-205.78,90.6-446.91,21.07-572.85-165.19a17.59,17.59,0,0,1,4.73-24.43c.42-.29.86-.55,1.31-.8l8.32-4.6a63.43,63.43,0,0,0,9.4,18.24c31.68,42.52,57.89,71.87,98.12,96.09a70.83,70.83,0,0,0,53.56,8.24,70,70,0,0,0,43.77-32.18l124-206.16-94.52,233.48c-11.44,27.44,10,45.72,20.33,54.51l1.49,1.26c15.1,12.93,55.62,34.16,112.7,34.15a266.64,266.64,0,0,0,114-27,67.84,67.84,0,0,0,34.2-85.45l-88-229c.56-.33,1.15-.65,1.69-1l123.4,224a41.75,41.75,0,0,0,37.65,21.41,69.21,69.21,0,0,0,21.3-3.67c62.56-20.23,133.78-104.14,158.75-187a48.39,48.39,0,0,0-32.26-60.36l-.55-.16-256.41-74v-.09l270.63,35.94a43.1,43.1,0,0,0,5.79.39c20.34,0,37.9-14.4,43.81-36.72,19.08-72-1.33-153.64-30.23-193.88a58.49,58.49,0,0,0-11-11.51Zm-726.14,401,239.1-132a113.19,113.19,0,0,0,9.06,9.4l-129.12,214.68a24.06,24.06,0,0,1-15,11,24.79,24.79,0,0,1-18.76-2.91c-33.88-20.4-56-45.29-84.86-84.09C1050.84,1683,1048.4,1676.93,1053.64,1671.22Zm333.65-92.73c1.82-.14,3.65-.3,5.46-.52l88.6,230.49a21.36,21.36,0,0,1-10.71,26.94c-109,51.28-176.27.17-176.9-.38l-1.58-1.34c-1.84-1.57-4.29-3.66-6.05-5.36Zm330.3-274c8.57,1,20.71,4.18,24.93,10,18.9,26.32,39.31,93.79,23.09,155a10.64,10.64,0,0,1-.78,2l-277.92-36.9c-.23-.81-.44-1.62-.69-2.42Zm-243.31,221,259.38,74.86a1.81,1.81,0,0,1,1.16.95,2.21,2.21,0,0,1,.17,1.76c-18.11,60.12-75.41,139.12-128.67,156.34a31,31,0,0,1-5.61,1.34l-128.15-232.55c.58-.89,1.14-1.78,1.7-2.69Zm-30.16-70a66.76,66.76,0,0,1-33.42,68.74,65.65,65.65,0,0,1-50.64,5.45,67.43,67.43,0,0,1-25.23-13.83ZM608,191.27A38.27,38.27,0,0,0,577.66,167L377.09,138.45l7.42-47.59L610.41,128a44.16,44.16,0,0,1,33.82,27.17l164.9,412.9H751.22Zm-91.7,443a19.9,19.9,0,0,1,19.86-19.92h826.05a19.92,19.92,0,0,1,0,39.84h-826a19.91,19.91,0,0,1-19.86-19.92Zm805.58,66.2v48.46H568.34V700.46ZM502.41,990.86A38.93,38.93,0,0,1,525,955.57a87,87,0,0,0,48-57.4l4.39-16.86h60.06a23.15,23.15,0,0,0,0-46.29H537.13a20.51,20.51,0,0,1-20.7-17.92,19.91,19.91,0,0,1,17.83-21.81,18,18,0,0,1,1.94-.1h825.13a20.51,20.51,0,0,1,20.7,17.92,19.91,19.91,0,0,1-17.83,21.81,17.87,17.87,0,0,1-1.94.1H799.49a23.15,23.15,0,1,0,0,46.29h507.67a132.79,132.79,0,0,0,57,76.76,38.67,38.67,0,0,1,18,32.78v95.25a233.36,233.36,0,0,1-27.81-19.41c-25.84-20-55.11-42.64-111.88-42.64s-86,22.65-111.89,42.64c-22.86,17.69-42.61,33-83.56,33s-60.7-15.27-83.56-33c-25.85-20-55.12-42.64-111.89-42.64s-86,22.65-111.89,42.64c-22.87,17.69-42.62,33-83.58,33s-60.7-15.27-83.57-33c-18.42-14.25-38.91-30-70.08-37.8Zm0,86.45c16,6.09,28.25,15.56,41.75,26,25.85,20,55.13,42.64,111.9,42.64s86.06-22.65,111.9-42.64c22.86-17.69,42.61-33,83.57-33s60.7,15.28,83.57,33c25.84,20,55.11,42.64,111.88,42.64s86-22.65,111.89-42.64c22.86-17.69,42.61-33,83.56-33s60.69,15.28,83.56,33c15.39,11.91,32.45,25.1,56.13,33.6v300L976.79,1660.79a63.88,63.88,0,0,0-25,86.81c.91,1.65,1.9,3.26,3,4.82a509.84,509.84,0,0,0,59.68,72.94h-409a103.21,103.21,0,0,1-103-103.18Zm-46.28,469H313.85a42.56,42.56,0,0,1-42.47-42.56V1136.05a42.57,42.57,0,0,1,42.47-42.57H456.13Zm-294-475.42a81.81,81.81,0,0,1,81.64-81.77H456.2c0,.57-.07,1.15-.07,1.72v56.32H313.85A88.9,88.9,0,0,0,225.09,1136v367.74a88.91,88.91,0,0,0,88.76,88.85H456.13v58.07H243.72a81.81,81.81,0,0,1-81.64-81.77Z"/><path class="cls-1" d="M718.49,1354.65a66.48,66.48,0,1,0-66.42-66.54v.06A66.53,66.53,0,0,0,718.49,1354.65Zm0-86.67a20.19,20.19,0,1,1-20.13,20.25v-.06A20.19,20.19,0,0,1,718.49,1268Z"/><path class="cls-1" d="M972.05,1622.23a66.48,66.48,0,1,0-66.42-66.53v.06A66.5,66.5,0,0,0,972.05,1622.23Zm0-86.66a20.19,20.19,0,1,1-20.14,20.25v-.06A20.19,20.19,0,0,1,972.05,1535.57Z"/><path class="cls-1" d="M1281.72,1354.65a66.48,66.48,0,1,0-66.41-66.54v.06A66.53,66.53,0,0,0,1281.72,1354.65Zm0-86.67a20.19,20.19,0,1,1-20.12,20.26v-.07A20.18,20.18,0,0,1,1281.72,1268Z"/><path class="cls-1" d="M600.3,1807.21a66.48,66.48,0,1,0-66.41-66.54v.07A66.52,66.52,0,0,0,600.3,1807.21Zm0-86.66a20.19,20.19,0,1,1-20.12,20.25v-.06A20.18,20.18,0,0,1,600.3,1720.55Z"/><path class="cls-1" d="M585,1250.33a23.14,23.14,0,0,0,23.14-23.15v-8a23.14,23.14,0,1,0-46.28,0v8A23.14,23.14,0,0,0,585,1250.33Z"/><path class="cls-1" d="M585,1618.59a23.15,23.15,0,0,0,23.14-23.15V1297.77a23.14,23.14,0,0,0-46.28,0v297.68A23.14,23.14,0,0,0,585,1618.59Z"/></svg>