<svg id="Capa_1" data-name="Capa 1" xmlns="http://www.w3.org/2000/svg" viewBox="0 0 2000 2000"><defs><style>.cls-1{fill:#fff;}</style></defs><title>Sin título-3</title><path class="cls-1" d="M1868.4,1148.46a52.15,52.15,0,0,0,30.73-73.64q-2.4-4.62-5-9.1c-.5-.89-1-1.76-1.57-2.65-1.21-2.07-2.41-4.14-3.66-6.17-.71-1.13-1.46-2.24-2.18-3.36-1.1-1.74-2.21-3.48-3.36-5.18-.83-1.22-1.7-2.41-2.54-3.62-1.1-1.57-2.18-3.12-3.3-4.66-.92-1.25-1.87-2.49-2.82-3.72-1.09-1.44-2.17-2.88-3.29-4.29-1-1.26-2-2.5-3.06-3.74s-2.2-2.68-3.32-4-2.17-2.49-3.28-3.71-2.24-2.53-3.39-3.77-2.29-2.43-3.45-3.64-2.29-2.37-3.45-3.53-2.43-2.4-3.67-3.58-2.33-2.23-3.51-3.34-2.54-2.33-3.82-3.48-2.39-2.1-3.58-3.13-2.66-2.27-4-3.38-2.43-2-3.65-3c-1.38-1.1-2.76-2.19-4.16-3.25-1.22-1-2.47-1.87-3.71-2.79-1.42-1-2.86-2.1-4.31-3.12-1.25-.89-2.52-1.76-3.78-2.62-1.48-1-3-2-4.44-3-1.28-.82-2.56-1.63-3.86-2.43-1.52-1-3-1.94-4.58-2.86-1.28-.78-2.59-1.53-3.89-2.28-1.58-.92-3.16-1.84-4.75-2.73-1.3-.7-2.61-1.38-3.92-2.07q-2.43-1.32-4.91-2.6c-1.28-.65-2.61-1.27-3.91-1.9-1.69-.82-3.37-1.67-5.09-2.46-1.25-.57-2.53-1.1-3.81-1.68-1.79-.79-3.55-1.6-5.37-2.34-.61-.26-1.26-.49-1.88-.75-4-1.64-8.08-3.18-12.18-4.65-1.51-.53-3-1.09-4.53-1.59s-3.19-1-4.8-1.53-3.23-1-4.87-1.53-3.17-.89-4.76-1.33-3.37-.95-5.06-1.39-3.17-.76-4.75-1.15c-1.74-.4-3.46-.83-5.22-1.22-1.56-.35-3.15-.65-4.73-1-1.78-.36-3.56-.72-5.36-1.05-1.57-.28-3.15-.54-4.73-.8-1.83-.3-3.64-.59-5.48-.86-1.57-.23-3.16-.44-4.74-.64-1.86-.23-3.71-.47-5.57-.67-1.58-.17-3.17-.32-4.76-.46-1.88-.17-3.76-.33-5.66-.48-1.58-.11-3.16-.21-4.76-.3-1.91-.11-3.84-.2-5.77-.27l-4.74-.15c-1.94,0-3.88,0-5.84,0-1.59,0-3.19,0-4.79,0-2,0-3.91.08-5.86.14-1.6.06-3.21.11-4.82.2-.72,0-1.45,0-2.17.09l-49.11-86.26a26.83,26.83,0,0,0-46.62,26.55l47,82.6c-47.5,45.8-178.71,189.74-173.28,377.2-17,4.24-34.66,5.16-50,5.16H888.47v-42.09c0-165.4-134.56-299.94-300-299.94H415.4a334.62,334.62,0,0,0-100.1,15.24A26.82,26.82,0,1,0,331.35,1060a281,281,0,0,1,84.06-12.78H588.52c135.81,0,246.31,110.49,246.31,246.3v42.1H142.28a7.55,7.55,0,0,1-3-.6,7.68,7.68,0,0,1-4.66-7,280.74,280.74,0,0,1,97.21-212.46,26.82,26.82,0,1,0-35.08-40.57,332.75,332.75,0,0,0-40.14,41.29C214.14,942.4,378.12,816.67,570.94,816.67H990.67L935.93,965.82a235.8,235.8,0,0,0,25.82,212.35c41.74,62,108.11,99,182.11,101.46q4.13.13,8.27.14h146.22a113,113,0,0,0,110.57-90.45c49.92-185.23-21.18-432.41-59.92-544.51h63.67l65.66,115.32a26.82,26.82,0,1,0,46.61-26.54l-50.55-88.77h57.15A47.5,47.5,0,0,0,1579,597.36v-126a47.46,47.46,0,0,0-59-46l-226.81,57,6-1.51-8.77-10.65a29.32,29.32,0,0,0,5.93-8.35,29.88,29.88,0,0,0-4-31.46l-56.6-68.67a46.73,46.73,0,0,0-36.57-17l-117.54,1.18A41.88,41.88,0,0,0,1040,387.66v28a64.65,64.65,0,0,0,64.74,64.54l122.64-.9,27.22,33a60.47,60.47,0,0,0-7.27,28.81v47.62l-114.14,21.48a27.22,27.22,0,0,0,5,54,26.48,26.48,0,0,0,5.06-.47l128-24.1a44.5,44.5,0,0,0,20.83,5.18h.1c34.88,96.82,114.12,349.88,64.77,531.36-.17.64-.33,1.3-.46,2a59.25,59.25,0,0,1-58.1,48H1152.14c-2.17,0-4.32,0-6.47-.12-56.59-1.91-107.41-30.26-139.42-77.81-33-48.94-40.24-108.68-20-163.89l60.13-163.83h12.42a29.59,29.59,0,0,0,29-35.5c-3-14.47-12.32-51.94-35.52-87.41-31.7-48.46-77-74.08-130.86-74.08h-176A45,45,0,0,0,704,651.15C685.87,527.61,585,430.62,459.71,418.39V390.22a26.82,26.82,0,0,0-53.64,0v28.15C271.33,431.51,164.91,542.68,159.14,679.43a54.25,54.25,0,0,0-47.53,53.74v29.29a54.25,54.25,0,0,0,54.19,54.19h86v64.89C147.27,971.44,81,1104.59,81,1252.94v75a61.35,61.35,0,0,0,61.28,61.28H237.1a264.07,264.07,0,0,0,523.16,0H1365c27.84,0,52.37-3.41,73.64-10,13.2,133.38,126,237.92,262.8,237.92,145.62,0,264.09-118.47,264.09-264.09A264.6,264.6,0,0,0,1868.4,1148.46ZM1477.71,491.25l47.64-12V591.16h-47.64Zm-373.2-64.71a10.92,10.92,0,0,1-10.91-10.9V399.35l102.83-1L1219,425.69Zm196.41,164.62v-50a7,7,0,0,1,5.3-6.79l117.85-29.61v86.43ZM754.17,762.46V677.11H921.42c60.66,0,90.55,49.92,104.23,85.9H754.17ZM305.41,841.38V816.65h42.76A486.61,486.61,0,0,0,305.41,841.38ZM432.88,470.69C550.36,470.69,646.66,563.06,653,679H212.8C219.11,563.06,315.41,470.69,432.88,470.69ZM165.79,763a.55.55,0,0,1-.55-.55v-29.3a.55.55,0,0,1,.55-.55H700a.55.55,0,0,1,.55.55v29.3a.55.55,0,0,1-.55.55ZM600.28,1389.2c-15,41.88-55.18,71.69-101.59,71.69s-86.61-29.81-101.59-71.69ZM498.69,1563.45A209.69,209.69,0,0,1,291.36,1389.2h50c16.6,72,81.41,125.32,157.37,125.32S639.46,1461.18,656,1389.2h50A209.69,209.69,0,0,1,498.69,1563.45ZM1477,1279c-.92,2.43-2,4.73-3,7l-.26.52c-.19.4-.4.8-.6,1.19-1,1.87-2,3.65-3,5.41-.2.31-.4.63-.6.93,12.29-160.11,135.41-283.13,164.06-309.71l.31,0c1.1-.09,2.21-.14,3.33-.21,1.8-.13,3.6-.26,5.39-.35l3.28-.1c1.8-.06,3.6-.12,5.39-.14,1.11,0,2.22,0,3.32,0,1.76,0,3.53,0,5.27,0,1.15,0,2.28.09,3.43.13,1.7.06,3.4.12,5.09.22,1.18.07,2.35.17,3.52.26,1.64.13,3.28.24,4.91.39,1.22.11,2.43.25,3.64.4,1.58.17,3.14.33,4.71.54,1.25.16,2.47.35,3.71.54,1.52.21,3.05.43,4.56.69,1.26.21,2.53.44,3.79.67,1.46.28,2.92.53,4.36.84,1.29.25,2.57.54,3.87.83s2.8.62,4.2,1,2.6.66,3.89,1,2.71.71,4,1.08,2.65.76,4,1.15l3.85,1.18c1.34.42,2.68.86,4,1.32l3.71,1.28,4,1.48c1.19.46,2.37.91,3.55,1.38,1.35.55,2.69,1.09,4,1.66,1.15.48,2.29,1,3.44,1.48,1.34.59,2.66,1.19,4,1.81,1.1.52,2.2,1,3.3,1.58,1.34.65,2.66,1.29,4,2,1.06.54,2.11,1.1,3.17,1.66q2,1.05,3.94,2.14c1,.57,2.06,1.16,3.07,1.75,1.3.75,2.61,1.53,3.89,2.3l3,1.84,3.84,2.46,2.85,1.93c1.25.86,2.52,1.72,3.75,2.62.94.66,1.86,1.35,2.78,2,1.22.91,2.46,1.83,3.66,2.76.91.69,1.79,1.41,2.68,2.13,1.19,1,2.38,1.9,3.55,2.88.89.73,1.75,1.49,2.62,2.24,1.16,1,2.31,2,3.43,3,.86.77,1.7,1.56,2.55,2.35,1.1,1,2.23,2.06,3.3,3.12q1.26,1.23,2.46,2.46,1.62,1.62,3.19,3.25c.81.85,1.6,1.73,2.39,2.57,1,1.13,2.06,2.23,3,3.36.79.89,1.54,1.81,2.31,2.7,1,1.15,2,2.28,2.91,3.45.75.93,1.48,1.88,2.23,2.82.92,1.18,1.85,2.35,2.76,3.55.73,1,1.44,2,2.14,3,.88,1.2,1.77,2.41,2.62,3.63.7,1,1.36,2,2,3.07.84,1.25,1.67,2.47,2.48,3.73.64,1,1.25,2.05,1.88,3.07.8,1.32,1.62,2.61,2.4,4,.49.83.93,1.68,1.41,2.53.88,1.52,1.75,3,2.57,4.62q-3.6.06-7.4.17c-.94,0-1.91.06-2.88.08l-4.86.18-5.4.24-2.68.13c-2.23.12-4.51.26-6.8.4l-1.61.1c-2.4.16-4.86.33-7.33.54-.48,0-.92.05-1.4.1-2.5.18-5.07.41-7.64.64l-1.37.13c-2.76.26-5.56.55-8.41.85l-.85.07q-4.35.48-8.81,1l-.72.09c-3,.37-6,.76-9.09,1.19l-.67.09c-3.11.43-6.26.89-9.42,1.38l-.55.09c-3.22.5-6.47,1-9.73,1.59l-.43.07c-3.18.55-6.37,1.14-9.59,1.74l-.79.15c-3.2.6-6.4,1.26-9.62,1.92-.3.08-.61.13-.89.19-3.2.68-6.4,1.38-9.62,2.11-.35.09-.71.16-1,.24-3.19.73-6.4,1.5-9.61,2.31l-1.18.27c-3.14.79-6.31,1.63-9.47,2.49l-1.44.37c-3.09.85-6.21,1.74-9.32,2.65l-1.66.47c-3,.9-6,1.84-9.08,2.81l-2,.6c-3,1-5.91,1.94-8.87,3l-2.24.76c-2.89,1-5.78,2.06-8.67,3.12-.82.3-1.64.58-2.46.89-2.83,1-5.65,2.16-8.47,3.27-.89.36-1.8.69-2.69,1-2.72,1.1-5.43,2.25-8.15,3.4l-3,1.27c-2.61,1.12-5.23,2.31-7.85,3.51-1.09.5-2.18,1-3.26,1.48-2.53,1.18-5,2.41-7.56,3.64-1.18.57-2.36,1.12-3.53,1.71-2.43,1.22-4.84,2.48-7.26,3.75-1.25.66-2.51,1.29-3.75,2-2.33,1.25-4.66,2.56-7,3.85-1.33.75-2.65,1.47-4,2.23-2.24,1.29-4.47,2.65-6.7,4-1.38.82-2.76,1.62-4.13,2.47-2.15,1.34-4.3,2.73-6.44,4.13-1.42.9-2.85,1.81-4.27,2.74-2,1.38-4.1,2.81-6.15,4.22-1.47,1-3,2-4.42,3.07-1.78,1.27-3.53,2.58-5.29,3.88l-2.48,1.84c-.88.67-1.76,1.3-2.64,2l-3,2.32c-1.46,1.14-2.92,2.31-4.35,3.48-1,.78-2,1.54-2.91,2.33-.49.4-1,.79-1.45,1.19-2.65,2.19-5.26,4.43-7.87,6.72-.17.15-.34.33-.53.48-.36.34-.73.64-1.1,1a178.78,178.78,0,0,0-47.52,69.53A0,0,0,0,1,1477,1279Zm292.15,24.24-26-49.69A107.79,107.79,0,1,1,1597,1325.71l27.69,53a81,81,0,0,0,47.86,40,82.17,82.17,0,0,0,24.49,3.78,81.6,81.6,0,0,0,72.14-119.31Zm-59.33,62.46a27.91,27.91,0,0,1-37.62-11.8l-51.41-98.39-.09-.17-19.28-36.88q5.47-3.5,11.15-6.8c.28-.18.57-.35.87-.52q5.2-3,10.58-5.91c.85-.46,1.72-.91,2.56-1.35,3.22-1.71,6.5-3.38,9.81-5,1.29-.63,2.59-1.23,3.88-1.85,2.36-1.14,4.76-2.24,7.16-3.34l3.19-1.43,19.72,37.71c.18.39.38.75.58,1.12l50.69,97A27.92,27.92,0,0,1,1709.86,1365.68Zm-8.43,197.77c-116,0-210.45-94.41-210.45-210.45,0-.73,0-1.47,0-2.22a123.15,123.15,0,0,0,15.81-16.63c.33-.42.65-.82,1-1.24,1.82-2.36,3.56-4.78,5.23-7.3.92-1.38,1.83-2.78,2.69-4.2.72-1.18,1.44-2.34,2.13-3.55s1.36-2.49,2-3.74l.88-1.64c.42-.85.86-1.68,1.27-2.53s.72-1.51,1.06-2.27l.26-.56c.27-.59.57-1.19.85-1.8,1-2.31,2-4.67,2.93-7.07l.06-.16c.2-.5.43-1,.62-1.48a128.51,128.51,0,0,1,9.51-19.21,126.55,126.55,0,0,1,20.92-25.94l7.42,14.22a161.75,161.75,0,0,0-25.73,87.3c0,89.07,72.46,161.54,161.53,161.54S1863,1442.05,1863,1353c0-85.86-67.36-156.27-152-161.21l-9.52-18.22a523,523,0,0,1,76.25-16.74A210.86,210.86,0,0,1,1911.88,1353C1911.88,1469,1817.47,1563.45,1701.43,1563.45Z"/></svg>