<svg id="Capa_1" data-name="Capa 1" xmlns="http://www.w3.org/2000/svg" viewBox="0 0 2000 2000"><defs><style>.cls-1{fill:#fff;}</style></defs><title>Sin título-3</title><path class="cls-1" d="M1865.48,1501.17H1722V1282.39a55.46,55.46,0,0,0-55.39-55.4H1414.88a146.12,146.12,0,0,0,30.62-89.64c0-81-65.92-146.95-146.94-146.95H1063.21V902.87a1342.93,1342.93,0,0,0,528.68-120.81,156.55,156.55,0,0,0,88.69-172l110.56,8.36a46,46,0,0,0,44.87-66l-63.67-131.12a45.93,45.93,0,0,0-79.57-5.49l-67.23,100.7c-45.85-39.29-109.32-50-166.46-24a1031.34,1031.34,0,0,1-102.63,40.14,28.66,28.66,0,0,0,18,54.42,1090,1090,0,0,0,108.36-42.39c48-21.84,101.31-3.65,129.54,44.22a99.71,99.71,0,0,1,9.2,80.49,98,98,0,0,1-53.42,60.5,1285.33,1285.33,0,0,1-531.61,116c-.65,0-1.29-.1-1.94-.1s-1.3.06-2,.1A1285.36,1285.36,0,0,1,501,729.92a98,98,0,0,1-53.41-60.5,99.7,99.7,0,0,1,9.19-80.49c28.24-47.87,81.51-66,129.54-44.22,205.8,93.54,432,120.29,654,77.34a28.65,28.65,0,1,0-10.88-56.26,1034.78,1034.78,0,0,1-166.26,18.4V499.56c75.91-13.58,133.72-80,133.72-159.78S1139.11,193.58,1063.2,180V47.53a28.65,28.65,0,0,0-57.3,0V180C930,193.58,872.19,260,872.19,339.79S930,486,1005.9,499.57v84.69A1021,1021,0,0,1,610,492.54c-57.15-26-120.62-15.3-166.46,24l-67.2-100.63a45.92,45.92,0,0,0-79.59,5.4L233.1,552.44a46,46,0,0,0,44.82,66l110.61-8.36a156.54,156.54,0,0,0,88.69,172A1342.75,1342.75,0,0,0,1005.9,902.88v87.54H770.55c-81,0-146.94,65.92-146.94,146.94A146.23,146.23,0,0,0,654.23,1227H402.51a55.46,55.46,0,0,0-55.4,55.39v218.77H203.63a86.05,86.05,0,0,0-85.95,85.95c0,50.44,46.43,92.67,97.95,86l130.7,229.45a143.58,143.58,0,0,0,124.49,72.36H1598.3a143.55,143.55,0,0,0,124.48-72.36l130.7-229.45c50.65,3.77,98-32.46,98-86A86.05,86.05,0,0,0,1865.48,1501.17Zm-136-1037,46.45,95.68-105-7.94ZM929.5,339.79a105.06,105.06,0,1,1,105.06,105.06A105.18,105.18,0,0,1,929.5,339.79Zm-636.27,220,46.45-95.68,58.58,87.74ZM1664.7,1284.3v216.87H1545.33l-99-216.87Zm-182.36,216.87H1258.81l-99-216.87h223.53Zm-286.52,0H972.28l-99-216.87h223.53ZM770.55,1047.71h528a89.65,89.65,0,0,1,0,179.29h-528a89.65,89.65,0,0,1,0-179.29ZM810.3,1284.3l99,216.87H685.76l-99-216.87Zm-405.88,0H523.78l99,216.87H404.42Zm1461.06,331.48h-1268a28.65,28.65,0,0,0,0,57.3H1787.53L1673,1874.17a86.14,86.14,0,0,1-74.7,43.41H470.82a86.11,86.11,0,0,1-74.69-43.41L281.58,1673.08H463.75a28.65,28.65,0,1,0,0-57.3H203.63a28.66,28.66,0,0,1,0-57.31H1865.48a28.66,28.66,0,0,1,0,57.31Z"/></svg>