<svg id="Capa_1" data-name="Capa 1" xmlns="http://www.w3.org/2000/svg" viewBox="0 0 2000 2000"><defs><style>.cls-1{fill:#fff;}</style></defs><title>Sin título-3</title><path class="cls-1" d="M1447.22,1695.93a28,28,0,0,0-28,28v79.77a89.9,89.9,0,0,1-89.8,89.79H1115.86a28,28,0,0,0,0,56H1329.4c80.42,0,145.84-65.42,145.84-145.83V1724a28,28,0,0,0-28-28Z"/><path class="cls-1" d="M1363.85,822.87,1231.13,626.41a33.88,33.88,0,0,1-5.84-19.06V546.72a28,28,0,0,0-56,0v60.63a89.71,89.71,0,0,0,15.43,50.43l91.2,135-1.5,1.12c-93.69,70.08-224,69.65-317.24-.93l91.31-135.17a89.77,89.77,0,0,0,15.44-50.43v-199h105.36V427.3a28,28,0,0,0,56,0V393.48a77.41,77.41,0,0,0,32-62.63V295.08a77.42,77.42,0,0,0-36-65.36l19.83-76.45A94.24,94.24,0,0,0,1149.9,35.4h-70.39A94.23,94.23,0,0,0,988.3,153.28l19.82,76.44a77.45,77.45,0,0,0-36,65.37v35.76a77.47,77.47,0,0,0,35.76,65.21V607.35a34,34,0,0,1-5.83,19.06L869.3,822.87a650.19,650.19,0,0,0-76.41,153.55,28,28,0,1,0,53,18.14,594.18,594.18,0,0,1,69.82-140.32l10-14.83a321,321,0,0,0,381.53-.17l10.13,15a591.68,591.68,0,0,1,101.69,327.49h-45.93a94.45,94.45,0,0,1-68.76-30.37,257.48,257.48,0,0,0-187.84-81.81c-2.8,0-5.57.1-8.34.2l-1.08,0a28,28,0,0,0,2,56l1.13,0c2.07-.08,4.15-.16,6.24-.16a198.6,198.6,0,0,1,146.83,64c28.52,30.64,68.53,48.22,109.78,48.22h46V1414.7h-46a150.64,150.64,0,0,0-109.78,48.22,200.47,200.47,0,0,1-213.24,52.62,28,28,0,1,0-18.56,52.88,256.46,256.46,0,0,0,272.81-67.31,94.49,94.49,0,0,1,68.76-30.37h46v133.79a28,28,0,0,0,56,0V1186.74a647.65,647.65,0,0,0-111.39-363.87Zm-162.57-492a21.49,21.49,0,0,1-21.47,21.47H1049.6a21.49,21.49,0,0,1-21.47-21.47V295.09a21.49,21.49,0,0,1,21.47-21.47h130.21a21.49,21.49,0,0,1,21.47,21.47Zm-152-224.59a37.94,37.94,0,0,1,30.2-14.81h70.39a38.17,38.17,0,0,1,37,47.76l-20.32,78.37H1062.87l-20.32-78.37A37.91,37.91,0,0,1,1049.31,106.26Z"/><path class="cls-1" d="M1006.86,1875.45l-150.62-53.7V1570.42c97.75-28.8,169.33-119.3,169.33-226.26V1117.42a47.92,47.92,0,0,0-47.86-47.87h-376a47.92,47.92,0,0,0-47.86,47.87v226.74a235.15,235.15,0,0,0,14.67,82A28,28,0,1,0,621,1406.67,178.48,178.48,0,0,1,611,1363.78l22.44-7.7a215.18,215.18,0,0,1,142.84,1.23,269.18,269.18,0,0,0,164,6.55l28.82-7.93C963,1449.62,884.9,1524,789.69,1524a178.33,178.33,0,0,1-106.35-34.85,28,28,0,0,0-33.2,45.16,236.16,236.16,0,0,0,50.59,28.37v259.08l-150.62,53.7a38.16,38.16,0,0,0,12.81,74.1H994.06a38.16,38.16,0,0,0,12.8-74.1Zm-81.44-565.63a213.47,213.47,0,0,1-130.06-5.18,271.36,271.36,0,0,0-180.17-1.57l-5.33,1.83V1125.6H969.53v172.09ZM666.36,1893.5l71.8-25.59a28,28,0,0,0,18.61-26.4V1577.72a238.19,238.19,0,0,0,32.92,2.32c3.52,0,7-.11,10.51-.26v261.74a28,28,0,0,0,18.61,26.39l71.79,25.6H666.36Z"/></svg>