<svg id="Capa_1" data-name="Capa 1" xmlns="http://www.w3.org/2000/svg" viewBox="0 0 2000 2000"><defs><style>.cls-1{fill:#fff;}</style></defs><title>Sin título-3</title><path class="cls-1" d="M1913.11,1058.26h-50.89a230.11,230.11,0,0,0-57.2,7.19c-16.87-90.28-56.77-182-117-268.57l20.4-46.25a192.59,192.59,0,0,0,13.86-107.3l50.93-50.94A123.07,123.07,0,1,0,1844.77,360a123,123,0,1,0-232.37,71.6l-50.94,50.94a192.61,192.61,0,0,0-107.3,13.86l-64.11,28.29C1248.43,442.36,1090.4,398.89,932,398.89c-117,0-232.41,23.19-343.13,68.94A955.37,955.37,0,0,0,309.41,645.36C146.83,793.51,49.77,986.39,49.77,1161.3c0,51.75,8.42,100.83,25,146.57a37.12,37.12,0,0,0-25,35.06c0,151.45,123.22,274.67,274.68,274.67H833a37.12,37.12,0,0,0,0-74.24H324.45c-97.84,0-179.54-70.47-197-163.32h1745.1c-17.46,92.84-99.16,163.31-197,163.31H1167a37.12,37.12,0,1,0,0,74.24h508.52c151.46,0,274.68-123.22,274.68-274.68a37.13,37.13,0,0,0-37.12-37.12h-27.3a229.53,229.53,0,0,0,64.42-159.53v-50.89a37.12,37.12,0,0,0-37.12-37.12ZM1876,1132.5v13.76c0,86.11-70,156.15-156.15,156.15h-13.77v-13.76c0-86.11,70-156.15,156.15-156.15Zm-141-35.81a232.33,232.33,0,0,0-57.11,53.9,143.68,143.68,0,0,0-155.81-52.9,294.35,294.35,0,0,0,80.32-106.89l49.83-112.95c43.84,72,72,146.39,82.77,218.84Zm-173,69.55a69.79,69.79,0,1,1-69.79,69.78A69.87,69.87,0,0,1,1562.05,1166.24Zm-213.81,0a69.79,69.79,0,1,1-69.78,69.78A69.87,69.87,0,0,1,1348.24,1166.24ZM1687.39,410.9a48.81,48.81,0,1,1,83.07-21.5,37.12,37.12,0,0,0,44.94,44.93,48.82,48.82,0,1,1-21.51,83.07,37.12,37.12,0,0,0-51.59.87l-49.06,49.06a188.16,188.16,0,0,0-55.77-55.77l49.06-49.06A37.12,37.12,0,0,0,1687.39,410.9ZM1484.14,564.35a117.59,117.59,0,0,1,47.51-10,118.38,118.38,0,0,1,108.8,166.27l-106,240.17c-29.79,67.54-88.5,114.06-161.06,127.64s-144.12-8.58-196.32-60.78-74.35-123.75-60.78-196.31,60.1-131.27,127.64-161.07ZM359.42,700.22C520.12,553.77,723.47,473.12,932,473.12c127.46,0,254.81,30.79,372.12,89.51L1214,602.39a294.58,294.58,0,0,0,19.45,546.78,143.6,143.6,0,0,0-11.14,156.64H888.83A140.46,140.46,0,0,0,765,1099H732.07A235.58,235.58,0,0,0,589.15,863.06l-37.29-15.81a37.12,37.12,0,0,0-48.4,49.25A150.26,150.26,0,0,1,483.37,1052L395.49,1161.7a133.35,133.35,0,0,0-16.24,142.16c.32.66.7,1.29,1,2H154c-19.9-44-30-92.52-30-144.51,0-154.38,88-326.75,235.41-461.08ZM590.6,948.36A161.31,161.31,0,0,1,652,1125.62a37.12,37.12,0,0,0,35.61,47.62H765a66.29,66.29,0,0,1,0,132.57H500.36c-23.68,0-43.94-12.74-54.2-34.09s-7.53-45.13,7.27-63.62l87.87-109.73a224.3,224.3,0,0,0,49.3-150Z"/><path class="cls-1" d="M1000,1543.38a37.08,37.08,0,1,0,26.24,10.84A37.33,37.33,0,0,0,1000,1543.38Z"/></svg>