<svg id="Capa_1" data-name="Capa 1" xmlns="http://www.w3.org/2000/svg" viewBox="0 0 2000 2000"><defs><style>.cls-1{fill:#fff;}</style></defs><title>Sin título-3</title><g id="Page-1"><g id="_030---Cake" data-name="030---Cake"><path id="Shape" class="cls-1" d="M1841.76,1336.81,1584,506.32c-6.5-91.14-136.9-167.24-345.53-201.64a133.16,133.16,0,0,0-160.09-77.24,184.38,184.38,0,0,1,94.45-117.38,198.67,198.67,0,0,1,196.48,15.78,32.49,32.49,0,1,0,37.93-52.75,252.82,252.82,0,0,0-391.22,135.19c-96.28-77.73-205.64-17.41-235.26,93.28-176.86,26.6-356.86,92.86-364.66,204.3l-257.89,831c-86.56,64-132.65,138.33-132.65,215.83,0,236.78,428,422.25,974.41,422.25s974.41-185.47,974.41-422.25c0-77.5-46.09-151.84-132.65-215.83ZM372.9,864.32a118.84,118.84,0,0,1,44.4,91.88c1.2,68.6-33.91,138-43.56,213.86-4.9,37.54-2.27,120.6,42.72,166.26,43.78,44.4,122.68,42.23,165.84-36.54,26.67-49.3,30.08-108.35,60.81-143.07A44.88,44.88,0,0,1,719,1164.5c40.66,72.34-54.08,169.13-44.6,275.57A127.14,127.14,0,0,0,862.77,1544c145.45-72.72,72.63-268.9,121.8-287.58a42,42,0,0,1,34.2,4.16c71.46,39,26.83,175.65,121.94,248.38a139.66,139.66,0,0,0,213.88-67c30-90.39-41.84-171.07-50.18-240.16a67.13,67.13,0,0,1,28.35-68.53,55,55,0,0,1,49.34,11.43c40.44,29,61.71,94.49,127.58,132.07a100.36,100.36,0,0,0,152.17-98.48c-3.24-58.82-45.63-108.16-49.46-150.65a81.42,81.42,0,0,1,27.09-67.52,77.14,77.14,0,0,1,14.48-9.1l158,508.58c-8.09,121.74-339.26,255.39-812,255.39s-803.92-133.65-811.85-255.39Zm1172-265,89.61,288.82a143.84,143.84,0,0,0-86.72,145.51c5.46,60.09,46.87,103.93,49.27,148,1.66,33.49-22.73,57.27-55,38.72-50.57-28.78-70.12-91.17-121.51-128.07a117.71,117.71,0,0,0-111.63-19.49,128.69,128.69,0,0,0-68.93,136.42c9.75,80.16,73,151.94,53.08,212.19a74.71,74.71,0,0,1-112.81,35.73c-69.9-53.4-23.38-195.43-130.08-253.7a106.15,106.15,0,0,0-88.93-7.73c-114.53,43.49-13.32,233-127.39,290a68.24,68.24,0,0,1-74-6.27c-55.47-50.64,12.83-155.26,28.65-227.37,35.73-162-116.93-226.45-194.07-138.59a255.9,255.9,0,0,0-48.17,99.32c-8.64,28.07-24.45,83.25-55.9,86.73a30.6,30.6,0,0,1-27.54-9.06,157.57,157.57,0,0,1-24.59-112.39c9.29-72.49,45.48-140.73,44.11-223.46a176.83,176.83,0,0,0-89.9-153.31l62.78-202.29c182.61,186.31,904.22,189.3,1089.72.23ZM937.7,239.43a107.13,107.13,0,0,1,66.88,54.24,32.67,32.67,0,0,0,49.31,13,106.63,106.63,0,0,1,85-14.71c44.79,11.53,55.22,71,43.72,116a217.43,217.43,0,0,1-113.68,133.4,1191.29,1191.29,0,0,1-145.12,3.51C772.05,409.56,848.93,216.72,937.7,239.43ZM773.32,368.37a288.33,288.33,0,0,0,56.09,169.1,32.15,32.15,0,0,0-4.25,63.85,1197.32,1197.32,0,0,0,407-18.71,32.48,32.48,0,1,0-13.61-63.5c-8.67,1.89-17.15,3.42-25.66,5.07a240.81,240.81,0,0,0,58.92-151.32c176,32.74,267.9,93.67,267.9,140.41,0,67.82-197.71,162.4-519.69,162.4s-519.69-94.58-519.69-162.4c0-48.72,102.38-113.68,293-144.9ZM1000,1909.93c-493,0-909.45-163.64-909.45-357.29a157.88,157.88,0,0,1,32.87-91.72C131.57,1668.18,578.76,1780,1000,1780s868.43-111.83,876.58-319.09a157.81,157.81,0,0,1,32.87,91.72C1909.45,1746.29,1493,1909.93,1000,1909.93Z"/></g></g></svg>