<svg id="Capa_1" data-name="Capa 1" xmlns="http://www.w3.org/2000/svg" viewBox="0 0 2000 2000"><defs><style>.cls-1{fill:#fff;}</style></defs><title>Sin título-3</title><path class="cls-1" d="M1906.19,1236.8H1612a106,106,0,0,0,13-51V1036.5a106.74,106.74,0,0,0-82.92-103.89,117.55,117.55,0,0,0,1.73-127.39h44.89a61.63,61.63,0,0,0,61.56-61.56V668.21a61.63,61.63,0,0,0-61.56-61.56H1471.54V355.14a27.79,27.79,0,1,0-55.57,0V606.65H1298.84a61.63,61.63,0,0,0-61.56,61.56v75.45a61.63,61.63,0,0,0,61.56,61.56h44.9a117.52,117.52,0,0,0,1.72,127.39,106.74,106.74,0,0,0-82.92,103.89v149.31a106,106,0,0,0,13,51H1183.9a184,184,0,0,0,10-60.1c0-71.35-40.79-133.3-100.25-163.88a117.84,117.84,0,0,0-56.19-197.29V560.68a27.78,27.78,0,1,0-55.56,0V815.53a117.84,117.84,0,0,0-56.19,197.29c-59.46,30.59-100.25,92.55-100.25,163.88a183.67,183.67,0,0,0,10,60.1H776.3a59.42,59.42,0,0,0,.3-6v-75.46a61.59,61.59,0,0,0-.94-10.4,61.6,61.6,0,0,0,38.81-57.15v-34.7a61.63,61.63,0,0,0-61.57-61.56H738.31a105.79,105.79,0,0,0,13-51V791.25A106.69,106.69,0,0,0,644.78,684.68H597.91V433.17a27.79,27.79,0,1,0-55.57,0V684.69H495.47A106.68,106.68,0,0,0,388.91,791.25v18.51a27.79,27.79,0,0,0,55.57,0V791.25a51,51,0,0,1,51-51H644.78a51,51,0,0,1,51,51V940.56a51.06,51.06,0,0,1-51,51H495.47a51.06,51.06,0,0,1-51-51,27.79,27.79,0,1,0-55.57,0,105.77,105.77,0,0,0,13,51h-14.6a61.63,61.63,0,0,0-61.56,61.56v34.7A61.6,61.6,0,0,0,364.59,1145a61.59,61.59,0,0,0-.94,10.4v75.46a59.47,59.47,0,0,0,.3,6h-246a57.48,57.48,0,0,0-57.42,57.41v77.07a57.49,57.49,0,0,0,57.42,57.43H228.57v70.16c0,101.26,82.39,183.64,183.65,183.64h1195c101.27,0,183.66-82.38,183.66-183.64v-70.16h115.32a57.49,57.49,0,0,0,57.43-57.43v-77.07A57.49,57.49,0,0,0,1906.19,1236.8ZM1292.84,743.66V668.21a6,6,0,0,1,6-6h289.84a6,6,0,0,1,6,6v75.45a6,6,0,0,1-6,6H1298.84A6,6,0,0,1,1292.84,743.66Zm213.28,123.92a62.36,62.36,0,1,1-62.36-62.36A62.44,62.44,0,0,1,1506.12,867.58Zm-188,318.23V1036.5a51.05,51.05,0,0,1,51-51h149.29a51.05,51.05,0,0,1,51,51v149.31a51.05,51.05,0,0,1-51,51H1369.12A51.05,51.05,0,0,1,1318.11,1185.81ZM947.35,930.12a62.36,62.36,0,1,1,62.36,62.36A62.42,62.42,0,0,1,947.35,930.12ZM881.07,1176.7c0-70.94,57.71-128.66,128.64-128.66A128.55,128.55,0,0,1,1123.4,1236.8H896A128,128,0,0,1,881.07,1176.7ZM381.33,1053.11a6,6,0,0,1,6-6H752.89a6,6,0,0,1,6,6v34.7a6,6,0,0,1-6,6H387.33a6,6,0,0,1-6-6v-34.7Zm37.87,177.71v-75.46a6,6,0,0,1,6-6H715a6,6,0,0,1,6,6v75.46a6,6,0,0,1-6,6H425.2A6,6,0,0,1,419.2,1230.82Zm1488.85,140.47a1.85,1.85,0,0,1-1.86,1.85H1476.6a27.78,27.78,0,1,0,0,55.56h258.7v70.18c0,70.61-57.47,128.07-128.09,128.07h-1195a128.22,128.22,0,0,1-128.08-128.07V1428.7H1342.5a27.78,27.78,0,1,0,0-55.56H117.93a1.85,1.85,0,0,1-1.85-1.85v-77.07a1.85,1.85,0,0,1,1.85-1.85H1906.21a1.85,1.85,0,0,1,1.84,1.85Z"/></svg>