<svg id="Capa_1" data-name="Capa 1" xmlns="http://www.w3.org/2000/svg" viewBox="0 0 2000 2000"><defs><style>.cls-1{fill:#fff;}</style></defs><title>Sin título-3</title><path class="cls-1" d="M1040.42,946.63,890.57,1096.48,762.83,968.73,897,834.52l-44.2-44.21L718.62,924.53,584.41,790.31,540.2,834.52,674.42,968.73,546.67,1096.48,396.82,946.63l-44.2,44.21,149.84,149.84-56.06,56.06L490.61,1241l56.06-56.06,127.75,127.75L531,1456,396.82,1321.8,352.62,1366l134.21,134.21L352.62,1634.44l44.21,44.2L531,1544.43l259.27,259.28,44.2-44.21-71.68-71.69,143.38-143.38,134.21,134.22,44.21-44.21L950.41,1500.23,1084.63,1366l-44.21-44.2L906.21,1456,762.83,1312.64,890.57,1184.9l118.59,118.58,44.21-44.2L934.78,1140.69l149.85-149.85ZM862,1500.23,718.62,1643.61,575.24,1500.23l143.38-143.38Zm-143.38-231.8L590.88,1140.68l127.74-127.74,127.75,127.74Z"/><path class="cls-1" d="M1531.49,30.81h-437.7c-274.72,0-469.18,107.7-595.42,328.64a277.13,277.13,0,0,0-26.89,63.47C291.65,463.2,144.21,574.37,62.64,737.51l.18.08c-21,39.74-32,85.61-32,137.35,0,131.69,36.58,203.19,125.06,240.49v697.44c0,92.1,98.85,156.32,187.58,156.32h750.34c53.93,0,110-26.88,146.66-72.18l.5.5L1366,1772.45c7.35-7.31,71.69-73.79,71.69-147.16V1594h93.79c53.93,0,110-26.88,146.66-72.18l.5.5,125.06-125.06c7.35-7.32,71.69-73.79,71.69-147.16v-638c23.35-23.47,44.92-46.58,56.65-62.84,34.55-48,37.14-112.7,37.14-205.87C1969.19,195.57,1789.42,30.81,1531.49,30.81ZM1240.23,1064.15l-21.38,7.1V1781.6c0,73.69-65.9,125.06-125.06,125.06H343.45c-59,0-125.06-40.11-125.06-93.8V1071.25L197,1064.12c-77.5-25.83-103.67-73.57-103.67-189.18,0-217.6,235.07-250.12,375.17-250.12H968.74c140.09,0,375.17,32.52,375.17,250.12C1343.91,1006.44,1310.49,1040.7,1240.23,1064.15Zm134.94,561.12c0,40.34-38.55,88-53.37,103l-40.42,40.43V1115.51c24.57-10.16,44.71-22.79,61.43-38.14,5.23-4.72,17.2-15.6,32.36-29.77Zm28.26-691.55c1.78-18.2,3-37.37,3-58.78,0-198.69-159.54-312.65-437.7-312.65H468.51c-80.6,0-150.88,9.86-210.56,28.3,97.41-79,223.6-122.09,366.88-122.09h469c204,0,348,86.2,375.8,225,17.07,85.51-4.91,165.2-26,194.46C1434.57,900.42,1420,916.68,1403.43,933.72ZM1678,689l-21.39,7.13v710.35c0,73.69-65.91,125.06-125.07,125.06H1437.7V987.33c23.32-23.45,44.89-46.55,56.65-62.87,33.14-46,56.3-144.32,36.55-243.27C1496.94,511.46,1329.46,406,1093.79,406h-469A720.12,720.12,0,0,0,542,410.92c45.75-104.24,173-161.26,364.2-161.26h500.23c140.1,0,375.17,32.51,375.17,250.11C1781.62,631.27,1748.2,665.53,1678,689Zm134.92,561.15c0,40.34-38.55,88-53.37,103l-40.42,40.43V740.34c24.6-10.16,44.7-22.79,61.47-38.14,5.5-5,17.32-15.76,32.32-29.74Zm68.41-737.32c-9.37,13-24,29.26-40.2,46.05a577.67,577.67,0,0,0,3.06-59.06c0-198.68-159.54-312.64-437.7-312.64H906.21c-82.07,0-148.82,9.66-203.44,25.42,102.58-79.85,232-119.21,391-119.21h437.69c241.58,0,375.17,147.88,375.17,250.11C1906.66,434.3,1902.85,482.82,1881.28,512.78Z"/><path class="cls-1" d="M1406.44,312.19v62.53c194,0,218.85,66.84,218.85,125h62.53C1687.82,375.31,1593.15,312.19,1406.44,312.19Z"/><rect class="cls-1" x="1281.38" y="312.19" width="62.53" height="62.53"/><rect class="cls-1" x="1156.32" y="312.19" width="62.53" height="62.53"/><rect class="cls-1" x="580.62" y="1750.35" width="88.41" height="62.53" transform="translate(-1076.78 963.64) rotate(-45)"/></svg>