<svg id="Capa_1" data-name="Capa 1" xmlns="http://www.w3.org/2000/svg" viewBox="0 0 2000 2000"><defs><style>.cls-1{fill:#fff;}</style></defs><title>Sin título-3</title><path class="cls-1" d="M1113.45,1023.34,1819,247.14a57.52,57.52,0,0,0-42.57-96.21H1555.75l76.92-81.13a28.47,28.47,0,1,0-41.32-39.18L1477.28,150.93H242.13a57.52,57.52,0,0,0-42.57,96.21l705.55,776.2A140.32,140.32,0,0,0,930.19,1045V1729a85,85,0,0,1-57,80.23l-236.4,82.19c-.58.21-1.15.42-1.71.66a37.62,37.62,0,0,0,14.61,72.28h719.26a37.62,37.62,0,0,0,14.61-72.28c-.56-.24-1.14-.46-1.71-.66l-236.4-82.19a85,85,0,0,1-57-80.23V1045A140.78,140.78,0,0,0,1113.45,1023.34Zm388.31-815.47h275a1.75,1.75,0,0,1,.35.65,1.9,1.9,0,0,1-.24.31L1601.63,401.62H1461.58c12.8-41,4.64-88.52-23.35-126.74Zm-375,1655.1,127.71,44.41H764.14L891.85,1863a142,142,0,0,0,95.29-134v-661.3c1.25.2,2.52.34,3.78.51l2,.26c1.51.18,3,.32,4.53.45l1.37.11c3.47.26,6.95.43,10.45.43s7-.17,10.47-.44l1.33-.1c1.52-.13,3.05-.27,4.57-.45.64-.07,1.27-.17,1.91-.25,1.29-.18,2.58-.32,3.87-.52V1729A142,142,0,0,0,1126.71,1863ZM1071.31,985a84.22,84.22,0,0,1-23.6,18.2c-.22.09-.44.16-.65.27a84.19,84.19,0,0,1-75.57,0c-.21-.1-.43-.17-.63-.27A83.93,83.93,0,0,1,947.25,985L468.69,458.56H574.27a28.47,28.47,0,1,0,0-56.94H416.93L241.7,208.84c-.13-.14-.19-.23-.21-.24a1.62,1.62,0,0,1,.24-.69,1.38,1.38,0,0,1,.39,0H1423.29l-26.37,27.81a149.27,149.27,0,0,0-77.07-24.78c-37.69-1.21-72.13,12.49-96.87,38.59s-36.6,61.18-33.38,98.78a142.39,142.39,0,0,0,2,14.58c-41.08-5.54-82.54,6.76-111.44,37.24-.47.5-.9,1-1.37,1.53H706.76a28.47,28.47,0,1,0,0,56.94h342.7a137.19,137.19,0,0,0-.51,54.78,143.65,143.65,0,0,0-14.67-1.24c-37.72-1.23-72.13,12.49-96.87,38.59-44.06,46.47-44.43,119.9-4.5,174.41l-31.48,33.2a28.47,28.47,0,1,0,41.33,39.17l31.45-33.17a149.39,149.39,0,0,0,77.08,24.78c1.54,0,3.07.08,4.6.08,35.91,0,68.54-13.64,92.27-38.67,24.74-26.09,36.6-61.18,33.38-98.78a145.6,145.6,0,0,0-2-14.58,142,142,0,0,0,19,1.32c34.56,0,68-12.8,92.39-38.56,28.89-30.47,39-72.53,31.24-113.26a144.15,144.15,0,0,0,14.67,1.25c1.54.05,3.07.08,4.6.08,31.2,0,59.9-10.3,82.45-29.4h126Zm50.2-545.78c13.3-14,31.66-20.92,51.06-20.92,22.28,0,45.92,9.11,64.8,27,35.32,33.49,40.81,85.24,12.25,115.37s-80.53,27.39-115.84-6.08h0C1098.44,521.14,1093,469.39,1121.51,439.26Zm-14.68,272.06c-13.4,14.13-32.41,21.5-53.72,20.85-22.5-.72-44.57-10.29-62.13-26.94-35.32-33.49-40.82-85.24-12.25-115.36,12.83-13.54,30.87-20.9,51-20.9.9,0,1.79,0,2.69,0,22.5.72,44.56,10.29,62.12,26.93h0c17.56,16.66,28.29,38.18,30.21,60.62C1126.6,677.74,1120.23,697.19,1106.83,711.32Zm139.51-367.9c-1.82-21.18,4.56-40.62,18-54.76,12.83-13.53,30.86-20.89,51-20.89.89,0,1.78,0,2.68,0,22.51.72,44.58,10.29,62.14,26.94,35.31,33.48,40.81,85.24,12.24,115.36-13.39,14.13-32.52,21.5-53.71,20.86-22.51-.72-44.57-10.29-62.13-26.94S1248.26,365.85,1246.34,343.42Z"/></svg>