<svg xmlns="http://www.w3.org/2000/svg" width="13.224" height="13.224" viewBox="0 0 13.224 13.224"><defs><style>.a{fill:#fff;}</style></defs><path class="a" d="M9.574,0H3.649A3.653,3.653,0,0,0,0,3.649V9.575a3.653,3.653,0,0,0,3.649,3.649H9.574a3.653,3.653,0,0,0,3.649-3.649V3.649A3.653,3.653,0,0,0,9.574,0Zm2.476,9.575a2.479,2.479,0,0,1-2.476,2.476H3.649A2.479,2.479,0,0,1,1.173,9.575V3.649A2.479,2.479,0,0,1,3.649,1.173H9.574a2.479,2.479,0,0,1,2.476,2.476V9.575Z" transform="translate(0 0)"/><path class="a" d="M44.375,40.97a3.407,3.407,0,1,0,3.407,3.407A3.411,3.411,0,0,0,44.375,40.97Zm0,5.641a2.234,2.234,0,1,1,2.234-2.234A2.237,2.237,0,0,1,44.375,46.611Z" transform="translate(-37.764 -37.765)"/><path class="a" d="M119.781,28.251a.86.86,0,1,0,.609.252A.864.864,0,0,0,119.781,28.251Z" transform="translate(-109.619 -26.041)"/></svg>