<svg id="Capa_1" data-name="Capa 1" xmlns="http://www.w3.org/2000/svg" viewBox="0 0 2000 2000"><defs><style>.cls-1{fill:#fff;}</style></defs><title>1</title><path class="cls-1" d="M326,1638.28H538.37v25.21a149.54,149.54,0,0,0,149.27,149.45h461.42c224.41,171.82,545.63,129.18,717.45-95.24a511.78,511.78,0,0,0,62.37-516.54,63.78,63.78,0,0,0-84-32.79q-2.66,1.17-5.19,2.57l-329,181.7V932.14a84.76,84.76,0,0,0-39.45-71.86,87.06,87.06,0,0,1-32.73-37.72h4.19c37,0,68.57-30.29,68-67.32a66.26,66.26,0,0,0-60.19-64.8v-49a66.19,66.19,0,0,0-6-132.11H941.24l-171.79-430a90.39,90.39,0,0,0-69.3-55.68L451.24-17.3A23.13,23.13,0,0,0,424.65,1.78h0V2L410,95.79a23.13,23.13,0,0,0,19.22,26.48h.36l219.13,31.16,135.25,355.9H618.44A66.19,66.19,0,0,0,604.3,640.19v52a67.16,67.16,0,0,0-52,65.34,66.28,66.28,0,0,0,59.63,64.75l-1.44,5.52a40.9,40.9,0,0,1-22.53,27,84.92,84.92,0,0,0-34.65,29.35H326A128.14,128.14,0,0,0,198,1012.2v498A128.14,128.14,0,0,0,326,1638.28ZM1862,1211.47a17.53,17.53,0,0,1,23.81,6.9c.25.46.48.92.69,1.4,103.53,235.15-3.16,509.71-238.31,613.25-205.78,90.6-446.91,21.07-572.85-165.19a17.6,17.6,0,0,1,4.72-24.43h0c.42-.29.86-.55,1.31-.8l8.32-4.6a63.43,63.43,0,0,0,9.4,18.24c31.68,42.52,57.89,71.87,98.12,96.09a70.82,70.82,0,0,0,53.56,8.24,70,70,0,0,0,43.77-32.18l124-206.16-94.52,233.48c-11.44,27.44,10,45.72,20.33,54.51l1.49,1.26c15.1,12.93,55.62,34.16,112.7,34.15a266.69,266.69,0,0,0,114-27,67.84,67.84,0,0,0,34.2-85.45l-88-229c.56-.33,1.15-.65,1.69-1l123.4,224a41.75,41.75,0,0,0,37.65,21.41,69.21,69.21,0,0,0,21.3-3.67c62.56-20.23,133.78-104.14,158.75-187a48.4,48.4,0,0,0-32.25-60.36h0l-.55-.16-256.41-74v-.09L1843,1459.25a43.1,43.1,0,0,0,5.79.39c20.34,0,37.9-14.4,43.81-36.72,19.08-72-1.33-153.64-30.23-193.88a58.83,58.83,0,0,0-11-11.51Zm-726.14,401,239.1-132a114.83,114.83,0,0,0,9.06,9.4l-129.12,214.68a24.07,24.07,0,0,1-15,11,24.79,24.79,0,0,1-18.76-2.91c-33.88-20.4-56-45.29-84.86-84.09-3.22-4.27-5.66-10.34-.42-16Zm333.65-92.73c1.82-.14,3.65-.3,5.46-.52l88.6,230.49a21.36,21.36,0,0,1-10.71,26.94c-109,51.28-176.27.17-176.9-.38l-1.58-1.34c-1.84-1.57-4.29-3.66-6.05-5.36Zm330.3-274c8.57,1,20.71,4.18,24.93,10,18.9,26.32,39.31,93.79,23.09,155a10.37,10.37,0,0,1-.78,2l-277.92-36.9c-.23-.81-.44-1.62-.69-2.42Zm-243.31,221,259.38,74.86a1.78,1.78,0,0,1,1.16,1,2.21,2.21,0,0,1,.17,1.76c-18.11,60.12-75.41,139.12-128.67,156.34A30.76,30.76,0,0,1,1683,1702L1554.8,1469.44c.58-.89,1.14-1.78,1.7-2.69Zm-30.16-70a66.76,66.76,0,0,1-33.42,68.74,65.65,65.65,0,0,1-50.64,5.45,67.43,67.43,0,0,1-25.23-13.83ZM690.24,132.55a38.26,38.26,0,0,0-30.34-24.27L459.33,79.73l7.42-47.59,225.9,37.14a44.16,44.16,0,0,1,33.82,27.17l164.9,412.9H833.46Zm-91.7,443a19.9,19.9,0,0,1,19.86-19.92h826.05a19.92,19.92,0,0,1,0,39.84h-826a19.91,19.91,0,0,1-19.86-19.92Zm805.58,66.2v48.46H650.58V641.74ZM584.65,932.14a38.93,38.93,0,0,1,22.59-35.29,87,87,0,0,0,48-57.4l4.39-16.86h60.06a23.15,23.15,0,0,0,0-46.29H619.37a20.51,20.51,0,0,1-20.7-17.92,19.91,19.91,0,0,1,17.81-21.81h0a17.87,17.87,0,0,1,1.94-.1h825.13a20.51,20.51,0,0,1,20.7,17.92,19.92,19.92,0,0,1-17.81,21.81h0a18,18,0,0,1-1.94.1H881.73a23.15,23.15,0,1,0-1,46.29H1389.4a132.78,132.78,0,0,0,57,76.76,38.65,38.65,0,0,1,18,32.78v95.25a234.53,234.53,0,0,1-27.81-19.41c-25.84-20-55.11-42.64-111.88-42.64s-86,22.65-111.89,42.64c-22.86,17.69-42.61,33-83.56,33s-60.7-15.27-83.56-33c-25.85-20-55.12-42.64-111.89-42.64S847.81,988,821.92,1008c-22.87,17.69-42.62,33-83.58,33s-60.7-15.27-83.57-33c-18.42-14.25-38.91-30-70.08-37.8Zm0,86.45c16,6.09,28.25,15.56,41.75,26,25.85,20,55.13,42.64,111.9,42.64s86.06-22.65,111.9-42.64c22.86-17.69,42.61-33,83.57-33s60.7,15.28,83.57,33c25.84,20,55.11,42.64,111.88,42.64s86-22.65,111.89-42.64c22.86-17.69,42.61-33,83.56-33s60.69,15.28,83.56,33c15.39,11.91,32.45,25.1,56.13,33.6v300L1059,1602.07a63.87,63.87,0,0,0-25,86.81,51.48,51.48,0,0,0,3,4.82,510.39,510.39,0,0,0,59.68,72.94h-409a103.21,103.21,0,0,1-103-103.18Zm-46.28,469H396.09A42.56,42.56,0,0,1,353.62,1445v-367.7a42.57,42.57,0,0,1,42.47-42.57H538.37Zm-294-475.42A81.81,81.81,0,0,1,326,930.4H538.44c0,.57-.07,1.15-.07,1.72v56.32H396.09a88.9,88.9,0,0,0-88.76,88.84V1445a88.91,88.91,0,0,0,88.76,88.85H538.37v58.07H326a81.81,81.81,0,0,1-81.64-81.77Z"/></svg>